<svg width="194" height="171" viewBox="0 0 194 171" fill="none" xmlns="http://www.w3.org/2000/svg">
<path d="M0 68.8413C2.4 127.241 64 140.041 64 140.041C64 140.041 64 106.219 96.8 105.6C138.4 104.815 131.2 170.441 131.2 170.441C131.2 170.441 202.118 114.296 192.8 68.8413C188.8 28.0413 140.728 -1.25392 93.6 0.041314C48.2517 1.28765 3.2 27.2413 0 68.8413Z" fill="#EFD9B0"/>
<path d="M112.8 41.6414H100H93.6001H81.5211C67.1041 41.6414 55.5306 53.5408 55.9309 67.9522L56.1087 74.3522C56.4936 88.2085 67.8372 99.2414 81.6988 99.2414H112.8C126.939 99.2414 138.4 87.7798 138.4 73.6413V67.2414C138.4 53.1029 126.939 41.6414 112.8 41.6414Z" fill="#131313" stroke="#131313" stroke-width="1.6"/>
<path d="M96.8 40.8414V30.4414" stroke="#131313" stroke-width="4.8"/>
<circle cx="96.8" cy="24.8414" r="6.4" fill="#131313"/>
<circle cx="78.4" cy="64.8415" r="9.6" fill="#EFD9B0"/>
<circle cx="115.2" cy="64.8415" r="9.6" fill="#EFD9B0"/>
<path d="M85.6001 81.6414C85.6001 81.6414 90.4001 85.6414 97.6001 85.6414C104.8 85.6414 108.8 81.6414 108.8 81.6414" stroke="#EFD9B0" stroke-width="3.2"/>
</svg>
